<svg xmlns="http://www.w3.org/2000/svg" viewBox="0 0 512 512">
  <rect width="512" height="512" rx="96" fill="#0a0e14"/>
  <g stroke="#1a2230" stroke-width="2">
    <line x1="60" y1="140" x2="452" y2="140"/>
    <line x1="60" y1="220" x2="452" y2="220"/>
    <line x1="60" y1="300" x2="452" y2="300"/>
    <line x1="60" y1="380" x2="452" y2="380"/>
  </g>
  <rect x="60" y="120" width="392" height="280" fill="none" stroke="#2a3548" stroke-width="2"/>
  <path d="M 60 360 L 90 340 L 110 350 L 130 310 L 150 320 L 170 280 L 190 240 L 210 200 L 220 140 L 240 170 L 260 210 L 280 250 L 300 230 L 320 260 L 340 290 L 360 310 L 380 330 L 400 340 L 430 350 L 452 355"
        stroke="#4ade80" stroke-width="8" fill="none" stroke-linejoin="round" stroke-linecap="round"/>
  <text x="256" y="465" text-anchor="middle" font-family="Consolas, 'Yu Gothic UI', monospace" font-size="70" font-weight="bold" fill="#4ade80">tinySA</text>
</svg>
